# Blender v2.74 (sub 0) OBJ File: ''
# www.blender.org
mtllib chalkboard.mtl
o Cube_Cube.001
v -0.184034 -3.271226 8.436418
v -0.184034 3.271228 8.436418
v -0.184034 -3.271228 -8.436418
v -0.184034 3.271226 -8.436418
v 0.022491 -3.271226 8.436418
v 0.022491 3.271228 8.436418
v 0.022491 -3.271228 -8.436418
v 0.022491 3.271226 -8.436418
v -0.184034 -2.821693 8.436418
v -0.184034 -2.528936 8.436418
v -0.184034 -2.528938 -8.436418
v -0.184034 -2.821696 -8.436418
v 0.022491 -2.528938 -8.436418
v 0.022491 -2.821696 -8.436418
v 0.022491 -2.528936 8.436418
v 0.022491 -2.821693 8.436418
v 0.300580 -2.528938 -8.436418
v 0.300580 -2.821696 -8.436418
v 0.300580 -2.528936 8.436418
v 0.300580 -2.821693 8.436418
v -0.184034 -3.271228 -7.948634
v -0.184034 -3.271226 7.948635
v -0.184034 3.271228 7.948634
v -0.184034 3.271226 -7.948635
v 0.022491 -3.271226 7.948635
v 0.022491 -3.271228 -7.948634
v 0.022491 3.271226 -7.948635
v 0.022491 3.271228 7.948634
v 0.022491 -2.821695 -7.948634
v 0.022491 -2.821693 7.948635
v 0.022491 -2.528938 -7.948634
v 0.022491 -2.528936 7.948635
v 0.300580 -2.821695 -7.948634
v 0.300580 -2.821693 7.948635
v 0.300580 -2.528938 -7.948634
v 0.300580 -2.528936 7.948635
v -0.184034 2.917096 8.436418
v -0.184034 2.917094 -8.436418
v 0.022491 2.917094 -8.436418
v 0.022491 2.917096 8.436418
v 0.022491 2.917094 -7.948635
v 0.022491 2.917096 7.948634
v -0.062546 -2.528938 -7.948634
v -0.062546 -2.528936 7.948635
v -0.062546 2.917094 -7.948635
v -0.062546 2.917096 7.948634
vt 0.987583 0.366762
vt 0.987583 0.387751
vt 0.972506 0.387751
vt 0.972506 0.366762
vt 0.397594 0.971091
vt 0.423448 0.971091
vt 0.423448 1.000000
vt 0.397594 1.000000
vt 0.972506 0.408739
vt 0.987583 0.408739
vt 0.937126 0.028909
vt 0.922048 0.028909
vt 0.922048 0.000000
vt 0.937126 0.000000
vt 0.937126 0.971090
vt 0.952204 0.971090
vt 0.952204 1.000000
vt 0.937126 1.000000
vt 0.972506 0.775501
vt 0.972506 0.748859
vt 0.987583 0.748859
vt 0.987583 0.775501
vt 0.972506 0.731508
vt 0.987583 0.731508
vt 0.821043 0.971091
vt 0.853862 0.971091
vt 0.853862 1.000000
vt 0.821043 1.000000
vt 0.874164 0.971090
vt 0.874164 1.000000
vt 0.987583 0.000000
vt 0.987583 0.026642
vt 0.972506 0.026642
vt 0.972506 0.000000
vt 0.987583 0.043993
vt 0.972506 0.043993
vt 0.880373 0.971091
vt 0.901746 0.971091
vt 0.901746 1.000000
vt 0.880373 1.000000
vt 0.952204 0.748859
vt 0.952204 0.731508
vt 0.952204 0.043993
vt 0.952204 0.026642
vt 0.922048 0.971090
vt 0.922048 1.000000
vt 0.901746 0.028909
vt 0.901746 0.000000
vt 0.880373 0.000000
vt 0.880373 0.028909
vt 0.874164 0.000000
vt 0.874164 0.028909
vt 0.853862 0.028909
vt 0.853862 0.000000
vt 0.821043 0.000000
vt 0.821043 0.028909
vt 0.952203 0.000000
vt 0.952203 0.028909
vt 0.397595 0.000000
vt 0.423448 0.000000
vt 0.423448 0.028909
vt 0.397594 0.028909
vt 1.000000 0.322769
vt 1.000000 0.645538
vt 0.993792 0.645538
vt 0.993792 0.322769
vt 0.000000 0.000000
vt 0.000000 0.028909
vt 0.000000 0.971091
vt 0.000000 1.000000
vt 0.821043 0.942181
vt 0.423449 0.942181
vt 0.993792 0.000000
vt 1.000000 0.000000
vt 0.993792 0.942181
vt 0.987583 0.942181
vn 0.000000 0.000000 -1.000000
vn 1.000000 0.000000 0.000000
vn 0.000000 0.000000 1.000000
vn 0.000000 -1.000000 0.000000
vn 0.000000 1.000000 -0.000000
usemtl Material_003
s 1
f 38/1/1 4/2/1 8/3/1 39/4/1
f 42/5/2 28/6/2 6/7/2 40/8/2
f 40/9/3 6/3/3 2/2/3 37/10/3
f 22/11/4 25/12/4 5/13/4 1/14/4
f 28/15/5 23/16/5 2/17/5 6/18/5
f 5/19/3 16/20/3 9/21/3 1/22/3
f 16/20/3 15/23/3 10/24/3 9/21/3
f 25/25/2 30/26/2 16/27/2 5/28/2
f 32/29/5 15/30/5 19/27/5 36/26/5
f 3/31/1 12/32/1 14/33/1 7/34/1
f 12/32/1 11/35/1 13/36/1 14/33/1
f 34/37/2 36/38/2 19/39/2 20/40/2
f 15/23/3 16/20/3 20/41/3 19/42/3
f 14/33/1 13/36/1 17/43/1 18/44/1
f 29/45/4 14/46/4 18/39/4 33/38/4
f 16/13/4 30/12/4 34/47/4 20/48/4
f 30/12/4 29/45/4 33/38/4 34/47/4
f 18/49/2 17/48/2 35/47/2 33/50/2
f 33/50/2 35/47/2 36/38/2 34/37/2
f 13/51/5 31/52/5 35/53/5 17/54/5
f 31/52/5 32/29/5 36/26/5 35/53/5
f 7/55/2 14/54/2 29/53/2 26/56/2
f 26/56/2 29/53/2 30/26/2 25/25/2
f 8/14/5 4/57/5 24/58/5 27/11/5
f 27/11/5 24/58/5 23/16/5 28/15/5
f 3/18/4 7/46/4 26/45/4 21/15/4
f 21/15/4 26/45/4 25/12/4 22/11/4
f 39/59/2 8/60/2 27/61/2 41/62/2
f 41/62/2 27/61/2 28/6/2 42/5/2
f 42/63/1 32/64/1 44/65/1 46/66/1
f 13/67/2 39/59/2 41/62/2 31/68/2
f 15/23/3 40/9/3 37/10/3 10/24/3
f 32/69/2 42/5/2 40/8/2 15/70/2
f 11/35/1 38/1/1 39/4/1 13/36/1
f 43/71/2 45/72/2 46/60/2 44/55/2
f 32/29/5 31/52/5 43/50/5 44/37/5
f 31/66/3 41/73/3 45/74/3 43/63/3
f 41/73/4 42/75/4 46/76/4 45/31/4
